<svg xmlns="http://www.w3.org/2000/svg" width="24" height="24" viewBox="0 0 24 24" fill="none" aria-hidden="true" focusable="false">
  <path d="M12 2.5L19 5.7V12.2C19 16.7 16 20 12 21.5C8 20 5 16.7 5 12.2V5.7L12 2.5Z" fill="currentColor" opacity="0.16"/>
  <path d="M12 4.1L17.4 6.5V11.5C17.4 14.8 15.2 17.4 12 18.7C8.8 17.4 6.6 14.8 6.6 11.5V6.5L12 4.1Z" stroke="currentColor" stroke-width="1.4" opacity="0.45"/>
  <path d="M8 9.8C9.1 8.8 10.4 8.2 12 8.2C13.6 8.2 14.9 8.8 16 9.8C14.9 10.8 13.6 11.4 12 11.4C10.4 11.4 9.1 10.8 8 9.8Z" stroke="currentColor" stroke-width="1.8" stroke-linejoin="round"/>
  <path d="M8.4 15.6L15.6 8.4" stroke="currentColor" stroke-width="1.8" stroke-linecap="round"/>
</svg>
