<svg xmlns="http://www.w3.org/2000/svg" width="24" height="24" viewBox="0 0 24 24" fill="none" aria-hidden="true" focusable="false">
  <path d="M12 2.5L19 5.7V12.2C19 16.7 16 20 12 21.5C8 20 5 16.7 5 12.2V5.7L12 2.5Z" fill="currentColor" opacity="0.16"/>
  <path d="M12 4.1L17.4 6.5V11.5C17.4 14.8 15.2 17.4 12 18.7C8.8 17.4 6.6 14.8 6.6 11.5V6.5L12 4.1Z" stroke="currentColor" stroke-width="1.4" opacity="0.45"/>
  <path d="M8.8 8.2H15.2V10.3C15.2 12.5 13.8 14 12 14C10.2 14 8.8 12.5 8.8 10.3V8.2Z" stroke="currentColor" stroke-width="1.8" stroke-linejoin="round"/>
  <path d="M8.8 9.4H7.2C7.2 10.8 7.9 11.8 8.8 12.1M15.2 9.4H16.8C16.8 10.8 16.1 11.8 15.2 12.1M12 14V16.1M10.3 17.2H13.7" stroke="currentColor" stroke-width="1.8" stroke-linecap="round"/>
</svg>
