<svg xmlns="http://www.w3.org/2000/svg" width="24" height="24" viewBox="0 0 24 24" fill="none" aria-hidden="true" focusable="false">
  <path d="M12 2.5L19 5.7V12.2C19 16.7 16 20 12 21.5C8 20 5 16.7 5 12.2V5.7L12 2.5Z" fill="currentColor" opacity="0.16"/>
  <path d="M12 4.1L17.4 6.5V11.5C17.4 14.8 15.2 17.4 12 18.7C8.8 17.4 6.6 14.8 6.6 11.5V6.5L12 4.1Z" stroke="currentColor" stroke-width="1.4" opacity="0.45"/>
  <path d="M12 6.7L13.2 9.2L16 9.5L13.9 11.3L14.5 14L12 12.6L9.5 14L10.1 11.3L8 9.5L10.8 9.2L12 6.7Z" fill="currentColor"/>
</svg>
