<svg xmlns="http://www.w3.org/2000/svg" width="24" height="24" viewBox="0 0 24 24" fill="none" aria-hidden="true" focusable="false">
  <path d="M12 2.5L19 5.7V12.2C19 16.7 16 20 12 21.5C8 20 5 16.7 5 12.2V5.7L12 2.5Z" fill="currentColor" opacity="0.16"/>
  <path d="M12 4.1L17.4 6.5V11.5C17.4 14.8 15.2 17.4 12 18.7C8.8 17.4 6.6 14.8 6.6 11.5V6.5L12 4.1Z" stroke="currentColor" stroke-width="1.4" opacity="0.45"/>
  <path d="M12 16.2C13.8 13.8 14.8 11.9 14.8 10.5C14.8 8.9 13.5 7.6 12 7.6C10.5 7.6 9.2 8.9 9.2 10.5C9.2 11.9 10.2 13.8 12 16.2Z" stroke="currentColor" stroke-width="1.8" stroke-linejoin="round"/>
  <circle cx="12" cy="10.4" r="1.1" fill="currentColor"/>
</svg>
