<svg xmlns="http://www.w3.org/2000/svg" width="24" height="24" viewBox="0 0 24 24" fill="none" aria-hidden="true" focusable="false">
  <path d="M12 2.5L19 5.7V12.2C19 16.7 16 20 12 21.5C8 20 5 16.7 5 12.2V5.7L12 2.5Z" fill="currentColor" opacity="0.16"/>
  <path d="M12 4.1L17.4 6.5V11.5C17.4 14.8 15.2 17.4 12 18.7C8.8 17.4 6.6 14.8 6.6 11.5V6.5L12 4.1Z" stroke="currentColor" stroke-width="1.4" opacity="0.45"/>
  <circle cx="9" cy="8.8" r="1" fill="currentColor"/>
  <circle cx="15" cy="8.8" r="1" fill="currentColor"/>
  <circle cx="12" cy="12" r="1" fill="currentColor"/>
  <circle cx="9" cy="15.2" r="1" fill="currentColor"/>
  <circle cx="15" cy="15.2" r="1" fill="currentColor"/>
  <path d="M9 8.8H15M9 15.2H15M12 8.8V15.2" stroke="currentColor" stroke-width="1.5" opacity="0.7"/>
</svg>
